<svg width="800" height="600" viewBox="0 0 800 600" fill="none" xmlns="http://www.w3.org/2000/svg">
  <rect width="800" height="600" fill="#F5F7FA"/>
  <rect x="100" y="100" width="600" height="400" rx="20" fill="#FFFFFF" stroke="#E2E8F0" stroke-width="2"/>
  
  <!-- Dashboard Header -->
  <rect x="100" y="100" width="600" height="60" rx="20" fill="#3B82F6"/>
  <circle cx="140" cy="130" r="15" fill="#FFFFFF"/>
  <rect x="170" y="125" width="100" height="10" rx="5" fill="#FFFFFF"/>
  <rect x="550" y="125" width="120" height="10" rx="5" fill="#FFFFFF"/>
  
  <!-- Dashboard Content -->
  <rect x="120" y="180" width="250" height="150" rx="10" fill="#EBF4FF" stroke="#3B82F6" stroke-width="2"/>
  <rect x="140" y="200" width="150" height="15" rx="7.5" fill="#3B82F6"/>
  <rect x="140" y="230" width="210" height="10" rx="5" fill="#93C5FD"/>
  <rect x="140" y="250" width="210" height="10" rx="5" fill="#93C5FD"/>
  <rect x="140" y="270" width="210" height="10" rx="5" fill="#93C5FD"/>
  <rect x="140" y="290" width="100" height="20" rx="5" fill="#3B82F6"/>
  
  <rect x="390" y="180" width="290" height="150" rx="10" fill="#F0FDF4" stroke="#10B981" stroke-width="2"/>
  <rect x="410" y="200" width="150" height="15" rx="7.5" fill="#10B981"/>
  <circle cx="430" cy="250" r="30" fill="#D1FAE5"/>
  <path d="M430 220C413.431 220 400 233.431 400 250C400 266.569 413.431 280 430 280" stroke="#10B981" stroke-width="6"/>
  <path d="M430 220C446.569 220 460 233.431 460 250C460 266.569 446.569 280 430 280" stroke="#10B981" stroke-width="6" stroke-dasharray="4 4"/>
  <rect x="480" y="235" width="180" height="10" rx="5" fill="#6EE7B7"/>
  <rect x="480" y="255" width="180" height="10" rx="5" fill="#6EE7B7"/>
  <rect x="480" y="275" width="100" height="20" rx="5" fill="#10B981"/>
  
  <rect x="120" y="350" width="560" height="130" rx="10" fill="#FEF3F2" stroke="#F43F5E" stroke-width="2"/>
  <rect x="140" y="370" width="200" height="15" rx="7.5" fill="#F43F5E"/>
  
  <!-- Table -->
  <rect x="140" y="400" width="520" height="1" fill="#FDA4AF"/>
  <rect x="140" y="430" width="520" height="1" fill="#FDA4AF"/>
  <rect x="140" y="460" width="520" height="1" fill="#FDA4AF"/>
  
  <rect x="140" y="410" width="100" height="10" rx="5" fill="#FDA4AF"/>
  <rect x="260" y="410" width="100" height="10" rx="5" fill="#FDA4AF"/>
  <rect x="380" y="410" width="100" height="10" rx="5" fill="#FDA4AF"/>
  <rect x="500" y="410" width="100" height="10" rx="5" fill="#FDA4AF"/>
  
  <rect x="140" y="440" width="100" height="10" rx="5" fill="#FDA4AF"/>
  <rect x="260" y="440" width="100" height="10" rx="5" fill="#FDA4AF"/>
  <rect x="380" y="440" width="100" height="10" rx="5" fill="#FDA4AF"/>
  <rect x="500" y="440" width="100" height="10" rx="5" fill="#FDA4AF"/>
  
  <!-- People Icons -->
  <circle cx="350" cy="500" r="15" fill="#3B82F6"/>
  <circle cx="390" cy="500" r="15" fill="#10B981"/>
  <circle cx="430" cy="500" r="15" fill="#F43F5E"/>
  <circle cx="470" cy="500" r="15" fill="#A855F7"/>
</svg>
